<?xml version="1.0" standalone="no"?>
<!DOCTYPE svg PUBLIC "-//W3C//DTD SVG 20010904//EN"
 "http://www.w3.org/TR/2001/REC-SVG-20010904/DTD/svg10.dtd">
<svg version="1.0" xmlns="http://www.w3.org/2000/svg"
 width="250px" height="45px" viewBox="0 0 3000.000000 550.000000"
 preserveAspectRatio="xMidYMid meet">
<g transform="translate(0.000000,550.000000) scale(0.100000,-0.100000)"
fill="#203e7d" stroke="none">
<path d="M1456 4618 c-24 -169 -456 -3564 -456 -3583 l0 -25 1820 0 1819 0 6
33 c3 17 106 826 230 1797 123 971 227 1777 229 1793 l6 27 -1824 0 -1824 0
-6 -42z m1363 -1461 c74 -430 137 -790 139 -800 3 -10 9 -16 14 -15 6 2 155
361 333 797 178 436 325 795 328 797 2 2 107 3 234 2 l229 -3 -501 -1105 -502
-1105 -194 -3 -194 -2 -229 1097 c-126 604 -231 1104 -234 1111 -3 9 45 12
219 12 l224 0 134 -783z"/>
<path d="M5365 4628 c-3 -18 -106 -825 -230 -1793 -123 -968 -227 -1775 -230
-1792 l-6 -33 1826 0 c1004 0 1825 2 1825 5 0 2 104 814 230 1804 127 990 230
1809 230 1821 l0 20 -1820 0 -1819 0 -6 -32z m2459 -725 c-3 -21 -13 -103 -22
-183 l-17 -145 -275 -5 -275 -5 -101 -825 c-56 -454 -108 -869 -114 -922 l-12
-98 -210 0 -210 0 6 38 c4 20 53 420 111 887 58 468 107 867 111 888 l6 37
-277 0 -277 0 5 28 c3 15 13 98 23 185 l17 157 759 0 758 0 -6 -37z"/>
<path d="M9275 4638 c-3 -13 -106 -819 -230 -1793 -124 -974 -227 -1785 -230
-1802 l-6 -33 1826 0 c1532 0 1825 2 1825 14 0 7 104 820 230 1807 127 987
230 1802 230 1811 0 17 -93 18 -1820 18 l-1820 0 -5 -22z m1999 -692 c84 -23
167 -58 233 -97 96 -58 238 -201 307 -311 l17 -26 -171 -122 c-94 -68 -172
-121 -173 -119 -40 68 -110 159 -145 189 -25 22 -75 55 -111 72 -57 29 -76 33
-166 36 -170 7 -300 -40 -421 -151 -124 -114 -222 -286 -270 -477 -34 -137
-44 -367 -21 -477 43 -198 169 -329 351 -362 197 -36 396 26 549 169 l72 67
100 -90 c55 -50 122 -110 148 -135 l49 -44 -44 -45 c-113 -117 -338 -249 -497
-292 -122 -34 -263 -45 -388 -32 -137 14 -224 39 -338 95 -160 80 -264 181
-342 331 -87 169 -119 336 -110 568 16 417 171 765 450 1016 135 121 319 209
514 246 101 19 324 14 407 -9z"/>
<path d="M14116 4408 c-52 -134 -302 -769 -555 -1413 l-460 -1170 141 -3 c77
-1 143 -1 145 1 2 2 77 199 167 438 l163 434 643 0 642 0 161 -438 160 -437
145 0 c111 0 143 3 139 13 -6 16 -1033 2695 -1060 2765 l-20 52 -158 0 -157 0
-96 -242z m517 -736 c147 -394 267 -720 267 -724 0 -5 -243 -8 -540 -8 -297 0
-540 3 -540 8 0 13 534 1442 540 1442 3 0 125 -323 273 -718z"/>
<path d="M21460 4103 l0 -546 -28 39 c-102 139 -292 255 -496 301 -115 26
-318 21 -438 -10 -333 -87 -552 -341 -639 -741 -29 -132 -36 -385 -15 -542 59
-444 273 -718 632 -810 324 -82 632 -8 856 204 32 30 72 78 90 106 l33 51 3
-168 2 -167 125 0 125 0 0 1415 0 1415 -125 0 -125 0 0 -547z m-526 -429 c110
-28 184 -72 277 -164 95 -94 146 -175 191 -304 93 -260 74 -612 -45 -851 -121
-244 -318 -369 -582 -368 -190 0 -330 57 -461 188 -144 144 -210 316 -221 581
-21 492 167 825 517 918 75 20 246 20 324 0z"/>
<path d="M16550 3913 c-329 -32 -577 -206 -725 -508 -88 -179 -125 -350 -125
-579 0 -521 220 -894 600 -1014 122 -39 181 -47 345 -46 138 1 173 5 257 27
282 75 475 262 570 554 20 59 39 125 42 146 l7 38 -132 -3 -131 -3 -19 -75
c-31 -121 -82 -215 -163 -296 -117 -117 -248 -167 -436 -167 -190 0 -319 51
-440 173 -90 91 -132 159 -176 289 -83 239 -84 523 -4 764 81 241 251 412 461
462 82 19 236 19 318 0 193 -46 349 -197 420 -408 l18 -52 127 -3 127 -3 -7
38 c-72 397 -318 624 -720 663 -97 9 -145 10 -214 3z"/>
<path d="M18562 3909 c-125 -12 -237 -43 -342 -96 -205 -103 -319 -275 -355
-535 l-6 -48 125 0 126 0 5 28 c52 252 161 371 385 418 109 23 352 15 434 -15
123 -44 187 -99 235 -201 23 -49 26 -67 26 -170 0 -125 -12 -162 -65 -201 -40
-30 -167 -56 -455 -94 -337 -44 -449 -70 -583 -136 -217 -105 -321 -270 -322
-506 0 -107 14 -171 57 -263 69 -144 208 -250 399 -301 65 -18 106 -22 234
-22 135 0 168 3 251 26 172 45 308 120 430 234 l66 63 6 -64 c11 -120 62 -195
151 -221 65 -20 191 -19 271 1 l65 16 0 99 c0 55 -4 99 -9 99 -5 0 -28 -7 -51
-15 -49 -17 -113 -20 -140 -5 -45 24 -45 21 -51 740 -6 761 -4 734 -76 873
-118 224 -418 334 -811 296z m628 -1454 c-39 -202 -211 -368 -450 -434 -263
-73 -503 -35 -624 100 -63 69 -80 119 -81 229 0 82 4 103 27 153 53 114 174
197 341 237 45 11 159 27 252 35 94 9 211 22 260 30 85 13 263 60 275 71 11
12 11 -363 0 -421z"/>
<path d="M22885 3909 c-468 -58 -788 -457 -812 -1014 -12 -300 49 -572 172
-760 51 -78 176 -201 248 -244 162 -95 363 -139 583 -127 391 21 648 215 790
594 37 97 43 92 -110 92 l-134 0 -17 -52 c-42 -131 -142 -261 -249 -323 -164
-96 -386 -117 -574 -54 -35 12 -97 43 -137 71 -183 121 -288 327 -311 607 l-7
81 793 0 793 0 -6 123 c-31 600 -304 953 -779 1006 -109 12 -142 12 -243 0z
m299 -239 c262 -67 429 -287 461 -607 l7 -73 -660 0 -660 0 15 78 c18 94 68
231 114 309 80 136 244 263 385 297 89 22 246 20 338 -4z"/>
<path d="M25012 3909 c-190 -24 -369 -125 -470 -265 l-47 -64 -3 140 -3 140
-124 0 -125 0 0 -1020 0 -1020 125 0 125 0 0 618 c0 494 3 635 15 707 15 95
45 197 75 255 54 106 172 208 296 257 63 25 80 27 209 28 136 0 142 -1 206
-31 110 -52 164 -121 194 -246 12 -53 15 -187 15 -825 l0 -763 125 0 125 0 0
588 c0 603 5 699 41 842 32 124 71 194 152 274 81 81 178 137 274 156 87 19
254 8 328 -20 117 -45 189 -147 215 -302 6 -39 10 -347 10 -800 l0 -738 125 0
125 0 0 633 c0 684 -8 899 -40 1023 -31 121 -80 216 -148 283 -109 110 -238
153 -452 153 -158 0 -251 -20 -368 -79 -89 -44 -197 -141 -254 -229 l-42 -64
-40 77 c-92 176 -230 266 -446 293 -94 11 -127 11 -218 -1z"/>
<path d="M27173 3848 c3 -7 181 -469 395 -1025 l390 -1013 -49 -137 c-108
-299 -151 -365 -263 -408 -46 -18 -131 -17 -238 1 l-38 7 0 -116 0 -116 38 -8
c20 -4 98 -8 172 -8 126 0 139 2 192 27 140 66 246 216 376 538 74 184 852
2246 852 2259 0 8 -39 11 -131 9 l-132 -3 -321 -862 c-274 -736 -323 -858
-332 -840 -6 12 -152 401 -324 865 l-314 842 -139 0 c-107 0 -138 -3 -134 -12z"/>
<path d="M13100 1530 l0 -40 95 0 95 0 0 -240 0 -240 40 0 40 0 0 240 0 240
95 0 95 0 0 40 0 40 -230 0 -230 0 0 -40z"/>
<path d="M13700 1290 l0 -280 40 0 40 0 0 141 0 141 34 34 c44 44 94 47 125 8
19 -24 21 -40 21 -175 l0 -149 41 0 41 0 -3 168 c-3 142 -7 172 -22 196 -37
55 -132 72 -200 36 l-37 -20 0 90 0 90 -40 0 -40 0 0 -280z"/>
<path d="M14990 1290 l0 -280 35 0 35 0 0 73 c0 64 3 76 23 95 13 12 26 22 29
22 3 0 32 -43 63 -95 l58 -95 48 0 c27 0 49 3 49 8 -1 4 -36 61 -79 126 l-78
119 74 70 c40 38 73 73 73 78 0 5 -21 9 -47 9 -46 0 -50 -2 -130 -82 l-83 -83
0 158 0 157 -35 0 -35 0 0 -280z"/>
<path d="M15842 1300 c-56 -148 -102 -274 -102 -280 0 -5 18 -10 41 -10 44 0
40 -5 83 113 l18 48 106 -3 106 -3 25 -77 25 -78 48 0 47 0 -28 78 c-16 42
-61 168 -101 280 l-73 202 -47 0 -47 0 -101 -270z m179 63 c17 -54 34 -104 37
-110 3 -10 -15 -13 -72 -13 -42 0 -76 3 -76 8 0 8 73 212 76 212 1 0 17 -44
35 -97z"/>
<path d="M16380 1290 l0 -280 34 0 34 0 4 133 c4 145 16 184 63 205 37 17 69
15 96 -7 23 -18 24 -25 27 -175 l4 -156 34 0 34 0 0 165 c0 126 -4 173 -15
194 -31 62 -143 81 -209 36 l-36 -24 0 94 0 95 -35 0 -35 0 0 -280z"/>
<path d="M18180 1473 l0 -96 -24 22 c-30 28 -99 38 -149 22 -84 -28 -129 -134
-108 -253 20 -115 75 -168 173 -168 46 0 62 5 87 26 30 25 31 25 31 5 0 -17 6
-21 35 -21 l35 0 0 280 0 280 -40 0 -40 0 0 -97z m-48 -133 c56 -44 64 -187
13 -240 -48 -50 -119 -39 -152 23 -23 45 -23 155 1 191 31 47 96 60 138 26z"/>
<path d="M19050 1291 l0 -281 152 0 c133 0 157 3 194 21 102 49 121 188 36
258 -20 17 -31 31 -24 31 21 0 52 63 52 105 0 46 -27 96 -67 122 -22 15 -53
19 -185 21 l-158 4 0 -281z m298 183 c31 -21 31 -85 0 -114 -19 -17 -35 -20
-115 -20 l-93 0 0 75 0 75 93 0 c68 0 99 -4 115 -16z m10 -228 c32 -17 42 -34
42 -72 0 -67 -50 -94 -175 -94 l-85 0 0 96 0 97 94 -6 c54 -3 106 -12 124 -21z"/>
<path d="M21910 1473 l0 -96 -24 22 c-30 28 -99 38 -149 22 -106 -35 -149
-204 -84 -333 31 -61 76 -88 147 -88 43 0 64 5 84 21 21 17 26 18 26 5 0 -12
10 -16 40 -16 l40 0 0 280 0 280 -40 0 -40 0 0 -97z m-58 -124 c49 -26 75
-158 43 -219 -47 -92 -156 -76 -184 26 -37 133 45 245 141 193z"/>
<path d="M22480 1290 l0 -280 152 0 c134 0 157 2 196 21 101 49 121 188 36
257 -27 22 -32 31 -20 35 28 11 49 67 44 119 -6 58 -43 103 -97 118 -20 5 -98
10 -173 10 l-138 0 0 -280z m291 189 c29 -15 40 -52 28 -89 -15 -43 -35 -50
-138 -50 l-91 0 0 75 0 75 91 0 c50 0 99 -5 110 -11z m-30 -219 c61 -11 89
-37 89 -82 0 -72 -47 -98 -175 -98 l-85 0 0 95 0 95 59 0 c32 0 83 -5 112 -10z"/>
<path d="M24890 1479 l0 -91 -36 22 c-44 28 -130 24 -172 -6 -76 -56 -98 -212
-44 -314 33 -63 76 -90 145 -90 49 0 101 20 110 42 3 7 6 3 6 -9 1 -19 7 -23
36 -23 l35 0 0 280 0 280 -40 0 -40 0 0 -91z m-51 -135 c68 -48 69 -228 2
-264 -54 -28 -119 -3 -141 56 -14 37 -12 145 4 173 27 48 92 65 135 35z"/>
<path d="M14610 1423 c-8 -3 -25 -15 -37 -26 l-23 -20 0 21 c0 19 -6 22 -40
22 l-40 0 0 -205 0 -205 40 0 40 0 0 125 c0 136 11 180 51 209 34 23 76 20
104 -9 24 -23 25 -28 25 -175 l0 -150 40 0 40 0 0 155 c0 177 -9 213 -62 245
-32 19 -102 26 -138 13z"/>
<path d="M16985 1416 c-143 -66 -149 -343 -9 -402 45 -19 138 -18 180 2 38 18
69 56 79 97 7 26 6 27 -34 27 -23 0 -41 -5 -41 -10 0 -6 -11 -22 -25 -35 -37
-37 -106 -35 -146 4 -19 20 -29 40 -29 60 l0 31 146 0 147 0 -7 53 c-9 65 -42
135 -79 161 -35 25 -139 33 -182 12z m134 -72 c19 -14 51 -69 51 -89 0 -3 -47
-5 -105 -5 -96 0 -105 2 -105 19 0 24 37 70 64 81 34 14 70 11 95 -6z"/>
<path d="M17474 1411 c-39 -18 -51 -35 -69 -98 -6 -21 -3 -23 34 -23 30 0 41
4 41 15 0 31 38 55 88 55 53 0 82 -20 82 -57 0 -31 -17 -39 -108 -51 -54 -8
-94 -19 -113 -32 -65 -47 -58 -170 13 -206 44 -23 126 -18 176 11 31 18 42 20
42 10 0 -21 36 -37 73 -33 28 3 32 7 35 36 3 27 0 33 -15 30 -17 -3 -18 9 -23
142 -3 80 -9 153 -14 162 -25 52 -164 74 -242 39z m176 -247 c0 -92 -149 -140
-180 -58 -18 47 15 73 110 88 67 10 70 8 70 -30z"/>
<path d="M19732 1409 c-60 -30 -93 -90 -100 -178 -7 -104 28 -180 99 -216 45
-24 149 -20 189 8 37 24 65 60 75 95 6 20 3 22 -28 22 -27 0 -43 -8 -70 -35
-29 -29 -42 -35 -79 -35 -35 0 -49 6 -70 28 -14 15 -29 42 -33 60 l-7 32 146
0 146 0 0 48 c0 66 -43 149 -90 174 -47 25 -124 23 -178 -3z m137 -63 c27 -14
51 -53 51 -81 0 -12 -20 -15 -105 -15 -58 0 -105 3 -105 6 0 20 34 72 58 86
33 21 64 22 101 4z"/>
<path d="M20694 1411 c-74 -34 -110 -111 -102 -223 9 -119 77 -188 186 -188
73 0 124 28 159 87 24 42 28 58 28 128 0 69 -4 86 -27 127 -48 81 -152 111
-244 69z m141 -67 c29 -19 55 -82 55 -132 0 -46 -32 -117 -58 -131 -30 -16
-84 -13 -111 5 -31 22 -51 73 -51 129 0 56 20 107 51 129 30 20 83 21 114 0z"/>
<path d="M21236 1405 c-34 -23 -36 -23 -36 -5 0 16 -7 20 -35 20 l-35 0 0
-205 0 -205 40 0 40 0 0 136 c0 109 3 142 17 164 26 44 81 62 123 40 30 -16
40 -67 40 -206 l0 -134 35 0 35 0 0 165 c0 131 -3 172 -16 196 -31 61 -142 79
-208 34z"/>
<path d="M23160 1408 c-35 -18 -51 -35 -73 -78 -25 -48 -28 -64 -25 -125 7
-133 63 -197 177 -203 89 -4 135 22 174 98 25 49 28 63 24 126 -3 54 -10 83
-30 117 -49 82 -156 111 -247 65z m145 -64 c29 -19 55 -82 55 -132 0 -46 -32
-117 -58 -131 -30 -16 -84 -13 -111 5 -68 48 -67 211 3 259 27 19 81 19 111
-1z"/>
<path d="M24244 1420 c-12 -5 -25 -13 -29 -19 -9 -16 -25 -13 -25 4 0 11 -11
15 -40 15 l-40 0 0 -205 0 -205 40 0 40 0 0 130 c0 97 4 139 15 160 32 62 97
79 140 35 24 -23 25 -28 25 -175 l0 -150 40 0 40 0 0 155 c0 177 -9 213 -62
245 -35 21 -105 26 -144 10z"/>
<path d="M25225 1416 c-42 -18 -65 -47 -72 -90 -6 -35 -5 -36 28 -36 27 1 38
7 54 33 18 28 26 32 70 35 60 3 88 -13 88 -52 0 -36 -12 -42 -92 -51 -124 -13
-171 -51 -171 -137 0 -44 4 -54 35 -85 35 -35 36 -35 105 -31 49 2 77 9 96 24
l27 20 23 -23 c40 -40 104 -28 104 18 0 24 -4 29 -25 29 l-25 0 0 146 0 146
-30 28 c-44 41 -151 54 -215 26z m165 -254 c0 -45 -28 -77 -80 -92 -59 -17
-100 7 -100 58 0 29 30 50 85 60 92 18 95 17 95 -26z"/>
<path d="M25790 1413 c-14 -9 -30 -24 -37 -33 -11 -13 -12 -11 -13 13 0 24 -4
27 -35 27 l-35 0 0 -205 0 -205 40 0 40 0 0 136 c0 74 5 144 10 155 12 22 61
49 90 49 17 0 20 6 20 40 0 37 -2 40 -28 40 -15 0 -39 -8 -52 -17z"/>
<path d="M26350 1408 c-59 -30 -91 -87 -98 -174 -12 -150 55 -234 186 -234 36
0 75 6 92 15 32 16 74 67 85 103 6 20 3 22 -28 22 -27 0 -43 -8 -70 -35 -29
-29 -42 -35 -79 -35 -48 0 -82 23 -99 67 -20 53 -20 53 137 53 l147 0 -6 59
c-13 152 -137 224 -267 159z m139 -62 c27 -14 51 -53 51 -81 0 -12 -20 -15
-105 -15 -58 0 -105 3 -105 6 0 3 7 21 16 40 28 58 87 78 143 50z"/>
<path d="M26840 1412 c-46 -24 -73 -75 -66 -126 6 -55 31 -74 122 -97 43 -11
89 -27 102 -35 51 -33 10 -84 -68 -84 -52 0 -87 20 -92 53 -2 18 -10 23 -40
25 -36 3 -38 1 -38 -25 0 -41 35 -92 75 -109 47 -19 148 -18 192 3 72 34 96
125 48 181 -19 23 -44 35 -107 52 -101 27 -118 36 -118 59 0 49 100 71 140 31
11 -11 20 -24 20 -30 0 -5 18 -10 40 -10 39 0 40 1 34 28 -11 42 -32 69 -69
86 -45 22 -132 21 -175 -2z"/>
<path d="M14220 1215 l0 -205 35 0 35 0 0 205 0 205 -35 0 -35 0 0 -205z"/>
<path d="M20110 1413 c0 -4 32 -97 72 -206 71 -198 72 -199 57 -240 -13 -38
-17 -42 -51 -45 -36 -3 -38 -5 -38 -37 0 -41 21 -51 80 -35 54 15 61 29 186
369 35 96 64 180 64 188 0 9 -13 13 -39 13 l-39 0 -53 -157 -52 -156 -50 156
-51 157 -43 0 c-24 0 -43 -3 -43 -7z"/>
<path d="M23602 1240 l3 -180 28 -27 c25 -26 34 -28 101 -28 65 0 78 3 100 24
26 24 26 24 26 3 0 -18 6 -22 35 -22 l35 0 0 205 0 205 -40 0 -40 0 0 -135 c0
-178 -18 -215 -103 -215 -61 0 -67 16 -67 193 l0 157 -41 0 -40 0 3 -180z"/>
<path d="M26010 1215 l0 -205 40 0 40 0 0 205 0 205 -40 0 -40 0 0 -205z"/>
</g>
</svg>
